<?xml version="1.0" encoding="utf-8"?>
<!-- Generator: Adobe Illustrator 18.0.0, SVG Export Plug-In . SVG Version: 6.00 Build 0)  -->
<!DOCTYPE svg PUBLIC "-//W3C//DTD SVG 1.1//EN" "http://www.w3.org/Graphics/SVG/1.1/DTD/svg11.dtd">
<svg version="1.1" id="Layer_1" xmlns="http://www.w3.org/2000/svg" xmlns:xlink="http://www.w3.org/1999/xlink" x="0px" y="0px"
	 viewBox="0 0 550 370" enable-background="new 0 0 550 370" xml:space="preserve">
<g>
	<g>
		<g>
			<g>
				<path fill="#DF3940" d="M218.5,172.1c-0.5-2-2-3.5-3.4-4.7c-3.1-2.3-6.6-3.5-10.1-4.5c-3.5-0.9-7.1-1.6-10.7-2
					c-3.6-0.5-7.2-0.7-10.9-0.8c-3.6-0.1-7.3,0.1-10.9,0.6c-1.8,0.3-3.6,0.6-5.5,1.2c-0.9,0.4-1.8,0.8-2.7,1.5
					c-0.4,0.4-0.9,0.9-1.1,1.8c-0.1,0.6-0.1,1.2,0.1,1.7c0.4,2.1,1.4,3.7,2.5,5.3c1.1,1.5,2.3,2.9,3.5,4.3c2.4,2.7,5.1,5.2,7.7,7.6
					c2.7,2.4,5.4,4.8,8.4,6.9v0.1c0.2,0.1,0.3,0.2,0.5,0.2c0.4,0,0.8-0.3,0.8-0.8l0.5-12.7c0.1-4.3,0.3-8.5,0.3-12.7
					c0-0.1,0-0.1-0.1-0.2c-0.1,0-0.1,0.1-0.1,0.1c-0.4,4.3-0.8,8.5-1.2,12.7L185,189c-5-4.3-9.9-8.8-14.2-13.7
					c-1.2-1.3-2.3-2.7-3.2-4.1c-1-1.4-1.8-3-2.1-4.4c-0.1-0.4-0.1-0.7,0-1c0,0,0.2-0.3,0.4-0.4c0.5-0.4,1.2-0.8,1.9-1.1
					c1.5-0.6,3.3-0.9,5-1.2c6.9-1,14.1-0.9,21.2-0.2c3.5,0.4,7.1,0.9,10.5,1.8c3.4,0.9,6.8,2.1,9.6,4c1.3,1,2.5,2.3,2.9,3.7
					c0.1,0.4,0.2,0.8,0.2,1.1c0,0.5,0,0.8-0.1,1.2c-0.1,0.8-0.4,1.6-0.8,2.3c-0.8,1.5-2,2.8-3.3,3.9c-1.3,1.1-2.8,2.1-4.3,3
					c-6.1,3.6-12.9,5.9-19.7,8.1c-13.7,4.1-27.9,6.8-42.1,8.9c-0.1,0-0.1,0.1-0.1,0.1c0,0.1,0.1,0.1,0.1,0.1
					c14.2-1.9,28.4-4.3,42.3-8.1c3.4-1,6.9-2.1,10.2-3.4c3.4-1.3,6.7-2.7,9.8-4.6c1.6-0.9,3.1-1.9,4.6-3.1c1.4-1.2,2.7-2.6,3.7-4.3
					c0.5-0.9,0.8-1.7,1-2.8c0.1-0.5,0.2-1,0.2-1.4C218.6,173.1,218.6,172.6,218.5,172.1z"/>
				<path fill="#DF3940" d="M226.9,188.2c0-0.1-0.1-0.1-0.2,0c-0.6,0.5-1.5,0.7-2.3,0.8c-0.8,0.2-1.6,0.2-2.4,0.3
					c-0.8,0.1-1.6,0.1-2.4-0.1c-0.3,0-0.5-0.1-0.7-0.1c0.7-0.3,1.4-0.6,2.1-1c0.5-0.3,0.9-0.6,1.3-0.9c0.2-0.2,0.4-0.4,0.6-0.7
					c0.2-0.3,0.4-0.4,0.5-0.9v-0.1c0-0.3,0-0.6-0.2-0.9c-0.2-0.3-0.4-0.6-0.7-0.7c-0.6-0.3-1.1-0.3-1.6-0.2c-1,0.1-1.8,0.5-2.7,1
					c-0.8,0.5-1.6,1.1-2.2,2c-0.3,0.5-0.5,1.1-0.5,1.8c0.1,0.7,0.4,1.4,0.9,1.8c1,0.9,2.1,1.1,3,1.1c1,0.1,1.9-0.1,2.9-0.3
					c0.9-0.2,1.7-0.6,2.6-1c0.4-0.3,0.8-0.5,1.2-0.8c0.4-0.3,0.7-0.7,0.8-1.2C226.9,188.2,226.9,188.2,226.9,188.2z M217.9,188.7
					c-0.2-0.2-0.3-0.2-0.3-0.5c-0.1-0.2,0-0.4,0.1-0.7c0.3-0.6,0.8-1.1,1.4-1.6c0.7-0.5,1.4-0.8,2-1c0.4-0.1,0.7-0.1,0.9,0
					c0.2,0.1,0.3,0.2,0.3,0.5c0,0.1-0.1,0.3-0.2,0.5c-0.2,0.2-0.3,0.4-0.4,0.6c-0.3,0.4-0.7,0.7-1.1,1c-0.7,0.5-1.4,1-2.2,1.4
					C218.3,188.9,218.1,188.8,217.9,188.7z"/>
				<path fill="#DF3940" d="M239,190.7c-1-0.1-1.8-0.4-2.4-0.8c-0.6-0.5-1-1.1-1.3-1.8c-0.3-0.8-0.6-1.6-0.9-2.5
					c-0.2-0.5-0.3-0.9-0.7-1.5c-0.2-0.2-0.3-0.4-0.8-0.6c-0.2-0.1-0.5-0.1-0.7-0.1c-0.2,0.1-0.4,0.2-0.5,0.3
					c-0.4,0.3-0.5,0.6-0.7,0.8l-1.3,2.5c-0.5,0.8-0.9,1.6-1.4,2.4l-0.2,0.3l-0.1-0.1l-0.3-2.8c0-0.1-0.1-0.1-0.1-0.1
					c-0.1,0-0.1,0.1-0.1,0.1c-0.1,1-0.2,1.9-0.2,2.8l-0.1,0.7v0.6c0,0.1,0,0.1,0.1,0.2v0.1h0.1c0,0,0,0.1,0.1,0.1
					c0.2,0.2,0.4,0.2,0.5,0.1c0.1,0,0.2-0.1,0.2-0.2v-0.1c0.1-0.1,0.1-0.1,0.1-0.1l0.1-0.1l0.1-0.1l0.3-0.3l0.5-0.6
					c0.6-0.7,1.2-1.5,1.7-2.3l0.8-1.2c0.2-0.2,0.3-0.4,0.4-0.7c0.1,0.1,0.1,0.2,0.1,0.3c0.2,0.9,0.5,1.9,1.1,2.8
					c0.5,0.9,1.4,1.8,2.5,2.2c1.1,0.4,2.3,0.2,3.1-0.4l0.1-0.1C239.1,190.8,239,190.7,239,190.7z M232.7,185.3
					C232.7,185.3,232.8,185.3,232.7,185.3L232.7,185.3C232.8,185.3,232.8,185.3,232.7,185.3C232.8,185.3,232.8,185.3,232.7,185.3z"
					/>
				<path fill="#DF3940" d="M251.1,190.7c-1-0.1-1.8-0.4-2.4-0.8c-0.6-0.5-1-1.1-1.3-1.8c-0.3-0.8-0.6-1.6-0.9-2.5
					c-0.2-0.5-0.3-0.9-0.7-1.5c-0.2-0.2-0.3-0.4-0.8-0.6c-0.2-0.1-0.5-0.1-0.7-0.1c-0.2,0.1-0.4,0.2-0.5,0.3
					c-0.4,0.3-0.5,0.6-0.7,0.8l-1.3,2.5c-0.5,0.8-0.9,1.6-1.4,2.4l-0.2,0.3l-0.1-0.1l-0.3-2.8c0-0.1-0.1-0.1-0.1-0.1
					c-0.1,0-0.1,0.1-0.1,0.1c-0.1,1-0.2,1.9-0.2,2.8l-0.1,0.7v0.6c0,0.1,0,0.1,0.1,0.2v0.1h0.1c0,0,0,0.1,0.1,0.1
					c0.2,0.2,0.4,0.2,0.5,0.1c0.1,0,0.2-0.1,0.2-0.2v-0.1c0.1-0.1,0.1-0.1,0.1-0.1l0.1-0.1l0.1-0.1l0.3-0.3l0.5-0.6
					c0.6-0.7,1.2-1.5,1.7-2.3l0.8-1.2c0.2-0.2,0.3-0.4,0.4-0.7c0.1,0.1,0.1,0.2,0.1,0.3c0.2,0.9,0.5,1.9,1.1,2.8
					c0.5,0.9,1.4,1.8,2.5,2.2c1.1,0.4,2.3,0.2,3.1-0.4l0.1-0.1C251.2,190.8,251.1,190.7,251.1,190.7z M244.8,185.3
					C244.8,185.3,244.8,185.3,244.8,185.3L244.8,185.3C244.9,185.3,244.9,185.3,244.8,185.3C244.9,185.3,244.9,185.3,244.8,185.3z"
					/>
				<path fill="#DF3940" d="M257,190.4c-0.7,0.1-1.5,0.1-2.1-0.1c-0.6-0.2-0.8-0.5-0.8-1c-0.1-0.5,0.2-1.2,0.1-1.8
					c-0.2-0.7-0.3-1.5-0.9-2.3l-0.1-0.1c-0.1-0.1-0.2-0.1-0.2,0.1c-0.6,0.7-0.9,1.3-1.1,2.1c-0.2,0.8,0.1,1.6,0.5,2.5
					c0.2,0.5,0.5,0.9,1,1.2c0.5,0.3,1,0.3,1.4,0.3c0.9-0.1,1.6-0.4,2.3-0.8c0,0,0.1-0.1,0.1-0.1C257.2,190.4,257.1,190.4,257,190.4z
					 M254.3,181.6c-0.2-0.1-0.3-0.2-0.5-0.3c-0.2-0.2-0.4-0.3-0.7-0.4c-0.1-0.1-0.2-0.1-0.3,0c-0.3,0.1-0.5,0.2-0.7,0.4
					c-0.2,0.1-0.4,0.2-0.5,0.3c-0.2,0.1-0.6,0.2-0.3,0.4c0.2,0.1,0.6,0.2,1.5,0.3h0.3c0.9-0.1,1.3-0.2,1.5-0.3
					C254.9,181.8,254.4,181.7,254.3,181.6z"/>
				<path fill="#DF3940" d="M265.2,185.5c-0.3-0.4-0.7-0.8-1.1-1c-0.4-0.3-0.8-0.4-1.3-0.5c-0.2-0.1-0.4-0.1-0.7-0.1
					c-0.3-0.1-0.5-0.1-0.7-0.1c-0.9-0.1-2.1,0.3-2.9,1.1c-0.4,0.4-0.7,1-0.8,1.5c-0.1,0.3-0.1,0.6-0.1,0.9c0,0.1,0,0.1,0.1,0.3v0.2
					c0.1,0.2,0.2,0.4,0.2,0.5c0.4,0.6,0.9,0.9,1.4,1.1c0.5,0.2,0.9,0.3,1.3,0.4c0.9,0.1,1.7,0.2,2.4,0.3c0.2,0,0.4,0.1,0.5,0.1
					c0,0.1-0.3,0.3-0.5,0.4c-0.7,0.3-1.5,0.4-2.2,0.1v-0.1c-0.1,0-0.1,0-0.2,0.1c-0.1,0.1-0.1,0.1,0,0.2c0.7,0.6,1.6,0.6,2.5,0.5
					c0.4-0.1,1-0.2,1.2-0.9c0-0.2,0-0.2,0.1-0.2c0-0.2-0.1-0.3-0.1-0.4c-0.1-0.3-0.3-0.4-0.4-0.5c-0.3-0.2-0.5-0.2-0.7-0.3
					c-0.8-0.2-1.6-0.4-2.3-0.6c-0.7-0.2-1.4-0.6-1.4-0.9v-0.2c0-0.1,0.1-0.2,0.1-0.3c0.1-0.2,0.3-0.4,0.4-0.5
					c0.4-0.3,0.9-0.4,1.5-0.5c0.2-0.1,0.4-0.1,0.5-0.1h0.6c0.3-0.1,0.7,0,1,0c0.7,0.1,1.3,0.2,1.7,0.9l0.1,0.1
					c0.1,0,0.2-0.1,0.2-0.1C265.7,186.5,265.5,185.9,265.2,185.5z"/>
				<path fill="#DF3940" d="M305.7,162.9c-0.1,0-0.2,0-0.2,0.1c-3.9,7.7-6.2,16.3-6.6,25.1c-0.1,1.1-0.1,2.1-0.1,3.2
					c-0.5-0.4-0.9-0.9-1.3-1.4c-0.7-0.8-1.3-1.6-2-2.5c-2.6-3.3-5.1-6.9-7.4-10.4c-0.6-0.9-1.1-1.7-1.6-2.6c0.1-1.2,0.1-2.4,0.1-3.6
					c-0.1-2.2-0.3-4.4-1.2-6.6c-0.3-0.5-0.6-1.1-1.2-1.5c-0.3-0.2-0.6-0.4-1-0.5c-0.2,0-0.4-0.1-0.6,0c-0.3,0-0.3,0-0.6,0.1
					c-0.4,0.1-0.8,0.5-1,0.9c-0.2,0.4-0.3,0.7-0.3,1c-0.1,0.7,0.1,1.3,0.2,1.8c0.6,2.2,1.5,4.2,2.5,6.2c0.6,1.2,1.3,2.5,1.9,3.7
					c-0.2,2.6-0.6,5.1-1.3,7.5c-0.6,2-1.4,4.1-2.5,5.8c-1.1,1.8-2.5,3.5-4.3,4.7c-0.1,0.1-0.1,0.1,0,0.2c0,0.1,0.1,0.1,0.2,0.1
					c1.8-1.2,3.3-2.8,4.5-4.7c1.2-1.8,2.1-3.8,2.8-5.9c0.7-2,1.2-4.2,1.5-6.4c0.1,0.2,0.2,0.4,0.4,0.6c2.2,3.7,4.6,7.4,7.2,10.9
					c0.6,0.9,1.3,1.7,2,2.6c0.7,0.9,1.4,1.7,2.4,2.5c0.3,0.2,0.5,0.4,1,0.6c0,0,0,0,0,0c0.2,0.1,0.4,0.1,0.7,0.1
					c0.3,0,0.6-0.2,0.9-0.5c0.1-0.1,0.1-0.1,0.2-0.2c0.4-0.6,0.3-0.9,0.3-1l-0.1-1.6c0-1.1,0-2.2,0.1-3.2c0.1-4.3,0.6-8.5,1.3-12.7
					c0.4-2.1,0.8-4.2,1.4-6.2c0.5-2.1,1.2-4.2,1.8-6.2C305.8,163,305.8,162.9,305.7,162.9z M285,171.4c-1-1.8-1.9-3.8-2.5-5.7
					c-0.2-0.5-0.2-1-0.2-1.4c0-0.2,0.1-0.4,0.1-0.5c0.1-0.1,0.1-0.2,0.2-0.2c0,0,0.3,0,0.3-0.1h0.2c0.2,0.1,0.3,0.1,0.5,0.2
					c0.3,0.2,0.6,0.6,0.8,1c0.9,1.8,1.2,4,1.3,6.1c0.1,0.6,0.1,1.2,0.1,1.8C285.4,172.2,285.2,171.8,285,171.4z"/>
				<path fill="#DF3940" d="M358.3,195.2c-0.1-0.1-0.1-0.1-0.2-0.1c-1.5,0.8-3.2,1.3-5,1.6c-0.7,0.1-1.4,0.2-2.1,0.3
					c-2.4,0.3-4.9,0.4-7.3,0.5c-4.9,0.1-9.8-0.3-14.7-0.6c-1.8-0.2-3.7-0.3-5.5-0.5c-3.1-0.3-6.1-0.6-9.2-0.9l-0.2-0.1
					c0.1-1.1,0.1-2.2,0.1-3.2c0-1.5-0.1-3.1-0.2-4.7l-1.8-0.3c0.1-0.2-0.1,0-0.2,0.1c-0.1,0.1-0.2,0.2-0.4,0.3
					c-0.3,0.3-0.6,0.5-0.9,0.7c-0.7,0.4-1.3,0.8-2,1.1c-0.7,0.3-1.4,0.6-2.1,0.6c-0.4,0.1-0.7,0-0.9-0.1c-0.1-0.1-0.2-0.1-0.3-0.2
					c-0.1-0.1-0.1-0.1-0.2-0.3c-0.2-0.5,0-1.3,0.4-1.9c0.4-0.7,0.8-1.3,1.4-1.8c0.6-0.5,1.2-1,2-1.2c0.7-0.2,1.5,0,1.9,0.8
					c0,0.1,0.1,0.1,0.2,0.1c0.1,0,0.1-0.1,0.1-0.1v-0.1c-0.2-0.4-0.5-0.8-0.9-1c-0.4-0.3-0.9-0.3-1.3-0.2c-0.9,0.2-1.6,0.6-2.4,1.1
					c-0.7,0.5-1.3,1.1-1.8,1.8c-0.5,0.8-0.9,1.7-0.7,2.8c0.1,0.1,0.1,0.2,0.1,0.3c0.1,0.2,0.2,0.3,0.3,0.5c0.2,0.3,0.4,0.4,0.7,0.6
					c0.6,0.3,1.1,0.3,1.5,0.3c1,0,1.8-0.3,2.7-0.5c0.8-0.3,1.6-0.7,2.4-1.1c0.2-0.1,0.3-0.2,0.5-0.3c0,1.9-0.1,3.7-0.3,5.6l-4.9-0.6
					c-1.2-0.2-2.5-0.3-3.7-0.4c-0.6-0.1-1.2-0.1-1.8-0.2h-1c-0.2,0-0.3,0-0.5,0.1c-0.1,0-0.2,0-0.4,0.1c-0.1,0-0.2,0.1-0.3,0.1
					c-0.1,0-0.2,0.1-0.3,0.1c-0.1,0.1-0.2,0.2-0.3,0.3c0,0.1-0.1,0.1-0.1,0.2c-0.2,0.5,0,1,0.5,1.2l0.1,0.1c2.1,0.9,4,2.2,5.5,3.9
					c0.8,0.8,1.4,1.7,2.1,2.6c0.3,0.5,0.6,1,0.8,1.5l0.4,0.8l0.2,0.4l0.2,0.3c0.1,0.1,0.1,0.2,0.2,0.2c0.1,0.1,0.2,0.2,0.3,0.3
					l0.1,0.1c0.1,0,0.2,0.1,0.3,0.1c0.3,0.1,0.5,0.1,0.7,0.1c0.1,0,0.1-0.1,0.1-0.1c1.1-0.5,1.8-1.3,2.3-2.1c0.5-0.8,0.8-1.6,1-2.4
					c0.5-1.6,0.7-3.2,0.9-4.8h0.2c3,0.3,6,0.5,9,0.7c1.5,0.1,3,0.2,4.5,0.3c0.4,0,0.8,0.1,1.2,0.1c1.6,0.1,3.2,0.2,4.9,0.2
					c0.7,0,1.5,0,2.2,0.1c2.6,0,5.1,0,7.7-0.1c1.8-0.1,3.5-0.2,5.3-0.4c0,0,0.1,0,0.1,0c0.7-0.1,1.3-0.2,2-0.3
					c1.3-0.2,2.7-0.5,4-0.9c1.1-0.3,2.1-0.7,3.1-1.3C358.3,195.4,358.4,195.3,358.3,195.2z M311.1,201c-0.3,0.9-0.7,1.8-1.1,2.4
					l-0.2-0.4c-0.3-0.6-0.6-1.1-1-1.6c-0.7-1-1.5-2-2.4-2.9c-0.9-0.9-1.9-1.7-3-2.4l3.6,0.3l4.9,0.4
					C311.8,198.2,311.5,199.7,311.1,201z"/>
				<path fill="#DF3940" d="M327.9,190.3c0,0-0.1,0-0.1,0.1c-0.9,0.3-1.9,0.6-2.7,0.4c-0.9-0.2-1.4-0.9-1.7-1.8
					c-0.2-0.6-0.3-1.2-0.3-1.8c0-0.3,0.1-0.5,0.1-0.7c0-0.3-0.1-0.5-0.1-0.9v-0.1H323c0,0,0-0.2-0.1-0.4c-0.2-0.4-1-0.4-1.1-0.2
					c-0.2,0.2-0.2,0.2-0.2,0.2c0,0.1-0.1,0.1-0.1,0.1c-0.1,0.1-0.1,0.2-0.1,0.2c-0.1,0.1,0,0.1-0.1,0.1v0.1h0.1v0.1
					c0,0.2-0.1,0.4-0.1,0.6c-0.1,0.5-0.2,0.9-0.3,1.3c-0.3,0.9-0.7,1.6-1.3,1.9c-0.3,0.2-0.6,0.3-0.9,0.3c-0.1,0.1-0.1,0.1-0.3,0.1
					h-0.3c-0.2,0.1-0.3,0-0.3,0c-0.1,0-0.3-0.1-0.5-0.4c-0.2-0.3-0.2-0.8-0.3-1.2c-0.2-0.9-0.2-1.9-0.2-2.9c0-0.1,0-0.1-0.1-0.1
					c-0.1-0.1-0.1-0.1-0.2,0c-0.6,0.9-1,1.9-1.2,3c-0.1,0.6-0.1,1.1,0,1.8c0.2,0.6,0.6,1.5,1.4,1.9c0.4,0.2,0.8,0.3,1.2,0.3
					c0.1,0,0.1,0,0.2,0h0.3c0.1,0,0.4-0.1,0.5-0.1c0.7-0.2,1.3-0.4,1.9-0.9c0.6-0.5,0.9-1.1,1.2-1.7c0.3,0.5,0.5,0.9,0.9,1.2
					c0.5,0.4,1,0.6,1.6,0.7c1.1,0.1,2.1-0.3,2.9-0.8c0,0,0.1-0.1,0.1-0.1c0.1,0,0.1-0.1,0.1-0.1C328,190.3,327.9,190.3,327.9,190.3z
					"/>
				<path fill="#DF3940" d="M362.7,195.9c-0.7,0.1-1.5,0.2-2.2,0.3c-1.8,0.2-3.5,0.4-5.3,0.5c-0.7,0-1.3,0.1-2,0.1
					c-3,0.1-6,0.1-9,0.1c-2.6-0.1-5.2-0.2-7.8-0.3c0.1-1.6,0.2-3.1,0.2-4.6c0-1.6-0.1-3.1-0.2-4.7l-0.1-0.5v-0.2
					c-0.2-0.4-0.6-0.7-1-0.5c-0.4,0.1-0.6,0.6-0.5,1c0,0.1-0.1,0.3-0.3,0.4c-0.2,0.2-0.4,0.4-0.6,0.6c-0.4,0.4-0.8,0.7-1.3,1
					c-0.9,0.6-1.9,1.2-2.9,1.4c-0.5,0.1-0.9,0.1-1.2-0.2c-0.3-0.3-0.4-0.9-0.4-1.4c0-1.1,0.2-2.3,0-3.5c0-0.1-0.1-0.1-0.1-0.1
					c-0.1,0-0.1,0.1-0.1,0.1c0,1.1-0.4,2.3-0.5,3.4c0,0.5-0.1,1.1,0.2,1.6c0,0.1,0.1,0.1,0.1,0.2c0,0,0.1,0.1,0.1,0.1
					c0.5,0.7,1.3,0.8,1.9,0.8c1.3-0.2,2.5-0.7,3.5-1.3c0.5-0.3,0.9-0.5,1.3-0.9c-0.1,2.4-0.2,4.8-0.5,7.1c0,0,0,0,0,0.1
					c0,0,0,0-0.1,0l-5-0.3l-2.5-0.1h-1.3c-0.3,0-0.5,0-0.7,0.1c-0.1,0-0.3,0-0.4,0.1c-0.1,0-0.2,0.1-0.3,0.1
					c-0.1,0.1-0.2,0.1-0.2,0.1c0,0-0.1,0-0.1,0.1c-0.1,0.1-0.2,0.2-0.3,0.3c0,0.1-0.1,0.1-0.1,0.1c-0.2,0.3-0.1,0.6,0,0.9
					c0.1,0.2,0.3,0.3,0.4,0.4h0.1c1.6,0.8,3.1,1.7,4.4,2.8c0.6,0.6,1.1,1.2,1.5,1.9c0.2,0.4,0.4,0.7,0.5,1.1
					c0.1,0.2,0.1,0.4,0.2,0.6l0.1,0.3l0.1,0.3c0,0.1,0,0.2,0.1,0.3c0.1,0.1,0.1,0.1,0.1,0.2c0.1,0.1,0.1,0.2,0.3,0.3
					c0.1,0.1,0.3,0.2,0.5,0.2c0.2,0,0.4,0,0.6-0.1h0.2c1.1-0.5,1.7-1.3,2.2-2.1c0.5-0.8,0.7-1.6,1-2.4c0.3-1.1,0.5-2.1,0.6-3.1
					c0-0.1,0-0.2,0-0.3c2.7,0.1,5.3,0.1,8,0c1.7,0,3.3-0.1,5-0.2c0,0,0.1,0,0.1,0c1.6-0.1,3.3-0.2,4.9-0.4c1.9-0.2,3.8-0.4,5.6-0.7
					c1.4-0.2,2.8-0.5,4.3-0.8c0,0,0,0,0-0.1H362.7z M333.4,200.7c-0.3,0.7-0.6,1.5-1,2c-0.2-0.4-0.4-0.8-0.6-1.2
					c-0.6-0.9-1.3-1.7-2-2.4c-0.6-0.5-1.2-0.9-1.9-1.3c-0.1,0-0.1-0.1-0.1-0.1h1.4l4.8,0.1c0,0.1,0,0.2-0.1,0.3
					C333.8,199.1,333.6,199.9,333.4,200.7z"/>
				<path fill="#DF3940" d="M349.4,188.2c0-0.1-0.1-0.1-0.2,0c-0.6,0.5-1.5,0.7-2.3,0.8c-0.8,0.2-1.6,0.2-2.4,0.3
					c-0.8,0.1-1.6,0.1-2.4-0.1c-0.3,0-0.5-0.1-0.7-0.1c0.7-0.3,1.4-0.6,2.1-1c0.5-0.3,0.9-0.6,1.3-0.9c0.2-0.2,0.4-0.4,0.6-0.7
					c0.2-0.3,0.4-0.4,0.5-0.9v-0.1c0-0.3,0-0.6-0.2-0.9c-0.2-0.3-0.4-0.6-0.7-0.7c-0.6-0.3-1.1-0.3-1.6-0.2c-1,0.1-1.8,0.5-2.7,1
					c-0.8,0.5-1.6,1.1-2.1,2c-0.3,0.5-0.5,1.1-0.5,1.8c0.1,0.7,0.4,1.4,0.9,1.8c1,0.9,2.1,1.1,3,1.1c1,0.1,1.9-0.1,2.9-0.3
					c0.9-0.2,1.7-0.6,2.6-1c0.4-0.3,0.8-0.5,1.2-0.8c0.4-0.3,0.7-0.7,0.8-1.2C349.5,188.2,349.5,188.2,349.4,188.2z M340.5,188.7
					c-0.2-0.2-0.3-0.2-0.3-0.5c-0.1-0.2,0-0.4,0.1-0.7c0.3-0.6,0.8-1.1,1.4-1.6c0.7-0.5,1.4-0.8,2.1-1c0.4-0.1,0.7-0.1,0.9,0
					c0.2,0.1,0.3,0.2,0.3,0.5c0,0.1-0.1,0.3-0.2,0.5c-0.2,0.2-0.3,0.4-0.4,0.6c-0.3,0.4-0.7,0.7-1.1,1c-0.7,0.5-1.4,1-2.2,1.4
					C340.8,188.9,340.6,188.8,340.5,188.7z"/>
				<path fill="#DF3940" d="M361.5,190.7c-1-0.1-1.8-0.4-2.4-0.8c-0.6-0.5-1-1.1-1.3-1.8c-0.3-0.8-0.6-1.6-0.9-2.5
					c-0.2-0.5-0.3-0.9-0.7-1.5c-0.2-0.2-0.3-0.4-0.8-0.6c-0.2-0.1-0.5-0.1-0.7-0.1c-0.2,0.1-0.4,0.2-0.5,0.3
					c-0.4,0.3-0.5,0.6-0.7,0.8l-1.3,2.5c-0.5,0.8-0.9,1.6-1.4,2.4l-0.2,0.3l-0.1-0.1l-0.3-2.8c0-0.1-0.1-0.1-0.1-0.1
					c-0.1,0-0.1,0.1-0.1,0.1c-0.1,1-0.2,1.9-0.2,2.8l-0.1,0.7v0.6c0,0.1,0,0.1,0.1,0.2v0.1h0.1c0,0,0,0.1,0.1,0.1
					c0.2,0.2,0.4,0.2,0.5,0.1c0.1,0,0.2-0.1,0.2-0.2v-0.1c0.1-0.1,0.1-0.1,0.1-0.1l0.1-0.1l0.3-0.3l0.5-0.6c0.6-0.7,1.2-1.5,1.7-2.3
					l0.8-1.2c0.2-0.2,0.3-0.4,0.4-0.7c0.1,0.1,0.1,0.2,0.1,0.3c0.2,0.9,0.5,1.9,1.1,2.8c0.5,0.9,1.4,1.8,2.5,2.2
					c1.1,0.4,2.3,0.2,3.1-0.4l0.1-0.1C361.6,190.8,361.6,190.7,361.5,190.7z M355.3,185.3C355.3,185.3,355.3,185.3,355.3,185.3
					L355.3,185.3C355.4,185.3,355.4,185.3,355.3,185.3C355.4,185.3,355.3,185.3,355.3,185.3z"/>
			</g>
		</g>
		<g>
			<path fill="#DF3940" d="M186.3,199.2v-0.4H183v4.7h0.4v-2.2h2.6v-0.4h-2.6v-1.7H186.3z"/>
			<path fill="#DF3940" d="M192.2,198.8v2.8c0,0.9-0.6,1.6-1.5,1.6c-0.9,0-1.5-0.7-1.5-1.6v-2.8h-0.4v2.8c0,1.2,0.8,2,1.9,2
				s1.9-0.8,1.9-2v-2.8H192.2z"/>
			<path fill="#DF3940" d="M195.8,203v-4.3h-0.4v4.7h3V203H195.8z"/>
			<path fill="#DF3940" d="M201.2,203v-4.3h-0.4v4.7h3V203H201.2z"/>
			<path fill="#DF3940" d="M206.1,201.4v0.4h1.8v-0.4H206.1z"/>
			<path fill="#DF3940" d="M212.2,200.9c-0.9-0.2-1.3-0.4-1.3-0.9c0-0.5,0.5-0.9,1.1-0.9c0.5,0,1,0.2,1.4,0.6l0.3-0.3
				c-0.4-0.4-1-0.7-1.6-0.7c-0.9,0-1.5,0.6-1.5,1.3c0,0.7,0.5,1,1.5,1.3c0.9,0.2,1.3,0.4,1.3,0.9c0,0.5-0.4,0.9-1.2,0.9
				c-0.6,0-1.2-0.3-1.6-0.7l-0.3,0.3c0.5,0.5,1.1,0.7,1.8,0.7c1,0,1.6-0.6,1.6-1.3S213.1,201.1,212.2,200.9z"/>
			<path fill="#DF3940" d="M216.1,198.8v0.4h1.6v4.2h0.4v-4.2h1.6v-0.4H216.1z"/>
			<path fill="#DF3940" d="M224,198.8h-0.5l-2.1,4.7h0.5l0.5-1.1h2.7l0.5,1.1h0.5L224,198.8z M222.6,201.9l1.1-2.6l1.1,2.6H222.6z"
				/>
			<path fill="#DF3940" d="M230.7,203.1c-1.1,0-1.9-0.9-1.9-2c0-1.1,0.9-2,1.9-2c0.5,0,1,0.2,1.4,0.6l0.3-0.3
				c-0.4-0.4-1-0.7-1.7-0.7c-1.3,0-2.4,1.1-2.4,2.4c0,1.3,1.1,2.4,2.4,2.4c0.6,0,1.2-0.3,1.7-0.7l-0.3-0.3
				C231.7,202.9,231.2,203.1,230.7,203.1z"/>
			<path fill="#DF3940" d="M236.4,200.9l1.9-2.1h-0.6l-2.5,2.7v-2.7h-0.4v4.7h0.4V202l0.8-0.8l1.8,2.2h0.6L236.4,200.9z"/>
			<path fill="#DF3940" d="M246.2,198.8h-1.6v4.7h1.6c1.4,0,2.5-1,2.5-2.3C248.7,199.7,247.6,198.8,246.2,198.8z M246.2,203H245
				v-3.9h1.2c1.2,0,2,0.8,2,1.9C248.2,202.2,247.4,203,246.2,203z"/>
			<path fill="#DF3940" d="M254.6,199.2v-0.4h-3.2v4.7h3.2V203h-2.8v-1.8h2.6v-0.4h-2.6v-1.7H254.6z"/>
			<path fill="#DF3940" d="M261,198.8l-1.8,4.1l-1.8-4.1h-0.5l2.1,4.7h0.5l2.1-4.7H261z"/>
			<path fill="#DF3940" d="M267.1,199.2v-0.4h-3.2v4.7h3.2V203h-2.8v-1.8h2.5v-0.4h-2.5v-1.7H267.1z"/>
			<path fill="#DF3940" d="M270.1,203v-4.3h-0.4v4.7h3V203H270.1z"/>
			<path fill="#DF3940" d="M277.3,198.7c-1.3,0-2.4,1.1-2.4,2.4c0,1.3,1.1,2.4,2.4,2.4c1.3,0,2.4-1.1,2.4-2.4
				C279.7,199.8,278.6,198.7,277.3,198.7z M277.3,203.1c-1.1,0-1.9-0.9-1.9-2c0-1.1,0.9-2,1.9-2c1.1,0,1.9,0.9,1.9,2
				C279.3,202.2,278.4,203.1,277.3,203.1z"/>
			<path fill="#DF3940" d="M284.2,198.8h-1.9v4.7h0.4v-1.7h1.5c1,0,1.7-0.6,1.7-1.5S285.2,198.8,284.2,198.8z M284.1,201.3h-1.4
				v-2.1h1.4c0.8,0,1.3,0.4,1.3,1.1C285.4,200.9,284.9,201.3,284.1,201.3z"/>
			<path fill="#DF3940" d="M291.6,199.2v-0.4h-3.2v4.7h3.2V203h-2.8v-1.8h2.5v-0.4h-2.5v-1.7H291.6z"/>
			<path fill="#DF3940" d="M297.8,200.2c0-0.9-0.7-1.5-1.7-1.5h-1.9v4.7h0.4v-1.7h1.3l1.2,1.7h0.5l-1.2-1.8
				C297.2,201.6,297.8,201,297.8,200.2z M294.6,201.3v-2.1h1.4c0.8,0,1.3,0.4,1.3,1.1c0,0.6-0.5,1.1-1.3,1.1H294.6z"/>
		</g>
	</g>
	<path fill="#257BA0" d="M398.7,187.9h-34.4c-1.6,0-2.8-1.3-2.8-2.8v-20.8c0-1.6,1.3-2.8,2.8-2.8h34.4c1.6,0,2.8,1.3,2.8,2.8v20.8
		C401.5,186.6,400.3,187.9,398.7,187.9z M364.3,162.3c-1.1,0-1.9,0.9-1.9,1.9v20.8c0,1.1,0.9,1.9,1.9,1.9h34.4
		c1.1,0,1.9-0.9,1.9-1.9v-20.8c0-1.1-0.9-1.9-1.9-1.9H364.3z"/>
	<path fill="#257BA0" d="M385.4,193.2h-7.8c-0.1,0-0.3-0.1-0.3-0.2c-0.1-0.1-0.1-0.2-0.1-0.4l1.1-5.3l0.9,0.2l-1,4.8h6.7l-1-4.8
		l0.9-0.2l1.1,5.3c0,0.1,0,0.3-0.1,0.4C385.7,193.1,385.5,193.2,385.4,193.2z"/>
	<path fill="#257BA0" d="M401.6,195.9h-40.2c-0.3,0.1-0.7,0.2-0.9,0.3c-0.3,0.1-0.5,0.3-0.7,0.5c0,0-0.1,0.1-0.1,0.1v12
		c0.3,0.5,0.9,0.8,1.7,1h40.2c0.7-0.2,1.4-0.4,1.7-1v-12C403,196.3,402.4,196,401.6,195.9z M402.3,208.5c0,0.4-0.3,0.6-0.8,0.7
		c-0.2,0-0.4,0-0.6,0h-38.7c-0.2,0-0.4,0-0.6,0c-0.5-0.1-0.8-0.3-0.8-0.7v-11.3c0-0.4,0.3-0.6,0.8-0.7c0.2,0,0.4,0,0.6,0h38.7
		c0.2,0,0.4,0,0.6,0c0.5,0.1,0.8,0.3,0.8,0.7V208.5z"/>
	<g>
		<g>
			<path fill="#257BA0" d="M395.9,207.2c0,0.3,0,0.5,0,0.8c0,0.1,0,0.3-0.4,0.3h-27.7c-0.9,0-0.9,0-0.9-0.6v-0.9
				c0-0.2,0-0.4,0.6-0.4h27.6c0.8,0,0.8,0.1,0.8,0.5L395.9,207.2z"/>
		</g>
		<g>
			<path fill="#257BA0" d="M382.9,204.9c0,0.4-0.4,0.4-0.6,0.4h-1.7c-0.2,0-0.6-0.1-0.6-0.4c0-0.3,0-0.7,0-1c0-0.4,0.5-0.4,0.6-0.4
				c0.3,0,0.6,0,0.9,0c0.3,0,0.6,0,0.9,0c0.1,0,0.6,0,0.6,0.4C382.9,204.2,382.9,204.6,382.9,204.9z"/>
		</g>
		<g>
			<path fill="#257BA0" d="M369.9,203.9c0,0.3,0,0.7,0,1c0,0.4-0.5,0.4-0.6,0.4c-0.6,0-1.2,0-1.8,0c-0.3,0-0.6-0.1-0.6-0.4
				c0-0.3,0-0.7,0-1c0-0.3,0.4-0.4,0.6-0.4c0.1,0,0.2,0,0.3,0l0.6,0l0.6,0c0.1,0,0.2,0,0.3,0C369.5,203.5,369.9,203.6,369.9,203.9z"
				/>
		</g>
		<g>
			<path fill="#257BA0" d="M395.9,203.9c0,0.3,0,0.7,0,1c0,0.1,0,0.4-0.7,0.4h-1.7c-0.4,0-0.7-0.2-0.7-0.4c0-0.4,0-0.7,0-1
				c0-0.1,0-0.4,0.7-0.4c0.3,0,0.6,0,0.9,0c0.3,0,0.5,0,0.8,0C395.5,203.5,395.9,203.6,395.9,203.9z"/>
		</g>
		<g>
			<path fill="#257BA0" d="M387.2,203.9c0,0.3,0,0.7,0,1c0,0.3-0.4,0.4-0.6,0.4h-1.4c-0.1,0-0.2,0-0.3,0c-0.2,0-0.6-0.1-0.6-0.4
				c0-0.3,0-0.7,0-1c0-0.3,0.4-0.4,0.6-0.4c0.6,0,1.2,0,1.7,0C386.7,203.5,387.2,203.6,387.2,203.9z"/>
		</g>
		<g>
			<path fill="#257BA0" d="M387.2,198c0,0.3,0,0.6,0,1c0,0.1,0,0.4-0.7,0.4H386v0l-0.8,0c-0.1,0-0.2,0-0.3,0c-0.2,0-0.6-0.1-0.6-0.4
				c0-0.4,0-0.7,0-1.1c0-0.2,0.2-0.4,0.5-0.4c0.6,0,1.3,0,1.9,0C387.2,197.5,387.2,197.9,387.2,198z"/>
		</g>
		<g>
			<path fill="#257BA0" d="M400.2,203.9c0,0.3,0,0.7,0,1c0,0.3-0.3,0.4-0.6,0.4c-0.6,0-1.2,0-1.8,0c-0.3,0-0.6-0.1-0.6-0.4
				c0-0.3,0-0.7,0-1c0-0.3,0.4-0.4,0.6-0.4c0.1,0,0.2,0,0.3,0l0.5,0l0.5,0c0.1,0,0.2,0,0.3,0C399.8,203.5,400.2,203.6,400.2,203.9z"
				/>
		</g>
		<g>
			<path fill="#257BA0" d="M374.2,203.9c0,0.4,0,0.7,0,1.1c0,0.4-0.5,0.4-0.6,0.4c-0.6,0-1.2,0-1.8,0c-0.3,0-0.6-0.1-0.6-0.4v-1
				c0-0.1,0-0.4,0.6-0.4c0.1,0,0.2,0,0.3,0l0.5,0l0.5,0c0.1,0,0.2,0,0.3,0C373.8,203.5,374.2,203.6,374.2,203.9z"/>
		</g>
		<g>
			<path fill="#257BA0" d="M400.2,200.9c0,0.4,0,0.7,0,1c0,0.2-0.2,0.4-0.6,0.4c-0.6,0-1.2,0-1.8,0c-0.4,0-0.6-0.2-0.6-0.4
				c0-0.3,0-0.7,0-1c0-0.3,0.4-0.4,0.6-0.4c0.1,0,0.2,0,0.3,0l0.6,0l0.6,0c0.1,0,0.2,0,0.3,0C399.8,200.6,400.2,200.6,400.2,200.9z"
				/>
		</g>
		<g>
			<path fill="#257BA0" d="M374.2,198.9c0,0.1,0,0.4-0.7,0.5h-1.7c-0.4,0-0.6-0.2-0.6-0.4c0-0.3,0-0.7,0-1c0-0.3,0.4-0.4,0.6-0.4
				c0.6,0,1.3,0,1.9,0c0.2,0,0.5,0.1,0.6,0.4C374.2,198.2,374.2,198.6,374.2,198.9z"/>
		</g>
		<g>
			<path fill="#257BA0" d="M387.2,202c0,0.2-0.2,0.4-0.6,0.4c-0.6,0-1.2,0-1.8,0c-0.6,0-0.6-0.3-0.6-0.4c0-0.3,0-0.6,0-1
				c0-0.1,0-0.4,0.6-0.4c0.1,0,0.2,0,0.3,0h0.3l0,0l0.8,0c0.1,0,0.2,0,0.3,0c0.2,0,0.6,0.1,0.6,0.4
				C387.2,201.2,387.2,201.6,387.2,202z"/>
		</g>
		<g>
			<path fill="#257BA0" d="M400.2,197.9c0,0.3,0,0.7,0,1c0,0.3-0.4,0.4-0.6,0.4c-0.1,0-0.2,0-0.4,0h-1.5c-0.1,0-0.6-0.1-0.6-0.4
				c0-0.3,0-0.7,0-1c0-0.4,0.4-0.4,0.6-0.4c0.3,0,0.6,0,0.9,0c0.3,0,0.6,0,0.9,0C399.8,197.5,400.2,197.6,400.2,197.9z"/>
		</g>
		<g>
			<path fill="#257BA0" d="M400.2,206.8c0,0.3,0,0.6,0,0.9c0,0.1,0,0.4-0.7,0.5H399v0l-0.9,0c-0.1,0-0.2,0-0.4,0
				c-0.3,0-0.5-0.2-0.5-0.4c0-0.3,0-0.7,0-1c0-0.4,0.4-0.4,0.6-0.4c0.6,0,1.1,0,1.7,0C399.8,206.4,400.2,206.5,400.2,206.8z"/>
		</g>
		<g>
			<path fill="#257BA0" d="M395.9,200.9c0,0.3,0,0.7,0,1c0,0.4-0.4,0.4-0.6,0.4c-0.6,0-1.2,0-1.7,0c-0.6,0-0.7-0.4-0.7-0.5
				c0-0.3,0-0.6,0-0.9c0-0.2,0.1-0.5,0.7-0.5h0.6l0,0l0.8,0c0.1,0,0.2,0,0.4,0C395.5,200.6,395.9,200.6,395.9,200.9z"/>
		</g>
		<g>
			<path fill="#257BA0" d="M374.2,200.9c0,0.4,0,0.7,0,1.1c0,0.3-0.5,0.4-0.6,0.4c-0.6,0-1.2,0-1.8,0c-0.2,0-0.6-0.1-0.6-0.4v-1
				c0-0.1,0-0.4,0.6-0.4c0.1,0,0.2,0,0.3,0l0.6,0l0.5,0c0.1,0,0.2,0,0.3,0C373.9,200.6,374.2,200.6,374.2,200.9z"/>
		</g>
		<g>
			<path fill="#257BA0" d="M369.9,197.9c0,0.3,0,0.7,0,1c0,0.3-0.4,0.4-0.6,0.4h-1.4c-0.1,0-0.2,0-0.4,0c-0.3,0-0.6-0.1-0.6-0.4
				c0-0.3,0-0.7,0-1c0-0.2,0.2-0.4,0.5-0.4c0.4,0,0.7,0,1.1,0c0.3,0,0.6,0,0.8,0C369.6,197.5,369.9,197.7,369.9,197.9z"/>
		</g>
		<g>
			<path fill="#257BA0" d="M395.9,197.9c0,0.3,0,0.7,0,1c0,0.1,0,0.4-0.6,0.4h-1.5c-0.1,0-0.2,0-0.3,0c-0.2,0-0.5-0.1-0.6-0.4
				c0-0.4,0-0.7,0-1.1c0-0.3,0.3-0.4,0.5-0.4c0.6,0,1.3,0,1.9,0C395.5,197.5,395.9,197.6,395.9,197.9z"/>
		</g>
		<g>
			<path fill="#257BA0" d="M369.9,201c0,0.3,0,0.5,0,0.7v0.2c0,0.2,0,0.5-0.7,0.5h-0.5l-0.3,0h-0.3c-0.2,0-0.4,0-0.7,0
				c-0.6-0.1-0.6-0.3-0.6-0.4c0-0.3,0-0.6,0-1c0-0.1,0-0.4,0.6-0.4c0.6,0,1.2,0,1.8,0C369.5,200.6,369.9,200.6,369.9,201z"/>
		</g>
		<g>
			<path fill="#257BA0" d="M365.5,206.8c0,0.3,0,0.7,0,1c0,0.2-0.2,0.4-0.6,0.4h-1.5c-0.1,0-0.2,0-0.3,0c-0.2,0-0.5-0.1-0.6-0.4
				c0-0.3,0-0.7,0-1.1c0-0.3,0.4-0.4,0.6-0.4c0.6,0,1.2,0,1.8,0C365.1,206.4,365.5,206.5,365.5,206.8z"/>
		</g>
		<g>
			<path fill="#257BA0" d="M382.9,200.9c0,0.4,0,0.7,0,1.1c0,0.2-0.2,0.3-0.5,0.4c-0.6,0-1.3,0-1.9,0c-0.3,0-0.5-0.1-0.6-0.4
				c0-0.3,0-0.6,0-1c0-0.1,0-0.4,0.7-0.4h0.6l0,0h0.8c0.1,0,0.2,0,0.4,0C382.7,200.6,382.9,200.7,382.9,200.9z"/>
		</g>
		<g>
			<path fill="#257BA0" d="M382.9,198v1c0,0.1,0,0.4-0.6,0.4h-1.5c-0.1,0-0.2,0-0.3,0c-0.2,0-0.6-0.1-0.6-0.4c0-0.4,0-0.7,0-1
				c0-0.3,0.2-0.4,0.6-0.4c0.6,0,1.2,0,1.8,0C382.9,197.6,382.9,197.9,382.9,198z"/>
		</g>
		<g>
			<path fill="#257BA0" d="M365.5,198c0,0.3,0,0.7,0,1c0,0.1,0,0.4-0.6,0.4h-1.7c-0.6,0-0.6-0.3-0.6-0.4c0-0.4,0-0.7,0-1
				c0-0.3,0.3-0.4,0.6-0.4c0.3,0,0.6,0,0.9,0c0.3,0,0.6,0,1,0C365.5,197.6,365.5,197.9,365.5,198z"/>
		</g>
		<g>
			<path fill="#257BA0" d="M365.5,200.9c0,0.3,0,0.7,0,1.1c0,0.3-0.4,0.4-0.6,0.4c-0.6,0-1.2,0-1.8,0c-0.4,0-0.6-0.2-0.6-0.4
				c0-0.3,0-0.7,0-1c0-0.1,0-0.4,0.6-0.4h0.6l0,0l0.8,0c0.1,0,0.2,0,0.4,0C365.3,200.6,365.5,200.7,365.5,200.9z"/>
		</g>
		<g>
			<path fill="#257BA0" d="M391.5,201.9c0,0.2,0,0.4-0.7,0.5h-0.6l-0.3,0h-0.6c-0.1,0-0.2,0-0.3,0c-0.4,0-0.5-0.2-0.5-0.4
				c0-0.4,0-0.7,0-1.1c0-0.3,0.3-0.4,0.5-0.4c0.6,0,1.3,0,1.9,0c0.2,0,0.5,0.1,0.5,0.4C391.6,201.3,391.6,201.6,391.5,201.9z"/>
		</g>
		<g>
			<path fill="#257BA0" d="M391.5,197.9c0,0.3,0,0.7,0,1c0,0.3-0.3,0.4-0.6,0.4c-0.1,0-0.2,0-0.3,0h-1.2c-0.1,0-0.2,0-0.4,0
				c-0.3,0-0.5-0.2-0.5-0.3c0-0.4,0-0.8,0-1.1c0-0.3,0.4-0.3,0.5-0.4c0.3,0,0.7,0,1,0c0.3,0,0.6,0,0.9,0
				C391.2,197.5,391.5,197.6,391.5,197.9z"/>
		</g>
		<g>
			<path fill="#257BA0" d="M378.5,198c0,0.3,0,0.6,0,1c0,0.1,0,0.4-0.6,0.4H377l-0.5,0c-0.1,0-0.2,0-0.3,0c-0.6,0-0.6-0.3-0.6-0.4
				c0-0.3,0-0.7,0-1c0-0.1,0-0.4,0.6-0.4c0.3,0,0.6,0,0.9,0c0.3,0,0.6,0,0.8,0C378.4,197.5,378.5,197.8,378.5,198z"/>
		</g>
		<g>
			<path fill="#257BA0" d="M378.5,203.9c0,0.3,0,0.7,0,1c0,0.1,0,0.4-0.7,0.4h-1.4c-0.1,0-0.2,0-0.3,0c-0.2,0-0.6-0.1-0.6-0.4
				c0-0.4,0-0.7,0-1.1c0-0.3,0.3-0.4,0.6-0.4c0.6,0,1.2,0,1.8,0C378.2,203.5,378.5,203.6,378.5,203.9z"/>
		</g>
		<g>
			<path fill="#257BA0" d="M378.5,201c0,0.3,0,0.7,0,1c0,0.2-0.2,0.4-0.5,0.4c-0.6,0-1.3,0-2,0c-0.3,0-0.5-0.2-0.5-0.4
				c0-0.4,0-0.7,0-1.1c0-0.3,0.3-0.4,0.6-0.4c0.1,0,0.2,0,0.3,0l0.6,0l0.5,0c0.1,0,0.2,0,0.3,0C378.5,200.6,378.5,200.9,378.5,201z"
				/>
		</g>
		<g>
			<path fill="#257BA0" d="M365.5,203.9c0,0.3,0,0.7,0,1.1c0,0.3-0.4,0.4-0.6,0.4c-0.6,0-1.2,0-1.8,0c-0.2,0-0.5-0.1-0.6-0.4
				c0-0.4,0-0.7,0-1.1c0-0.3,0.4-0.4,0.6-0.4c0.1,0,0.2,0,0.3,0l0.6,0l0.6,0c0.1,0,0.2,0,0.3,0C365.1,203.5,365.5,203.6,365.5,203.9
				z"/>
		</g>
		<g>
			<path fill="#257BA0" d="M391.5,203.9c0,0.3,0,0.7,0,1c0,0.4-0.4,0.4-0.6,0.4c-0.6,0-1.2,0-1.8,0c-0.3,0-0.6-0.1-0.6-0.4
				c0-0.4,0-0.7,0-1c0-0.3,0.4-0.4,0.6-0.4c0.1,0,0.2,0,0.3,0l0.6,0l0.5,0c0.1,0,0.2,0,0.3,0C391.3,203.5,391.5,203.7,391.5,203.9z"
				/>
		</g>
	</g>
	<g>
		<path fill="#DF3940" d="M367.4,167.7c0.8-0.4,1.7-0.9,2.4-1.2c0.5-0.3,0.6-0.3,0.9-0.2c0.2,0.1,0.3,0.1,0.3,0.2
			c-0.8,0.9-1.7,1.1-3,1.8c-0.4,0.2-0.7,0.4-1,0.6c-0.3,0.1-0.3,0.2,0,0.3c1.1,0.5,2.3,1,3.3,1.6c0.6,0.3,0,0.2-0.3,0.2
			c-1.4-0.6-2-0.9-3-1.3c-0.6-0.2-1.1-0.5-1-0.9C365.9,168.5,366.5,168.1,367.4,167.7z"/>
		<path fill="#DF3940" d="M376.5,169.4c-0.8,0.4-1.7,0.9-2.4,1.2c-0.5,0.3-0.6,0.3-0.9,0.2c-0.2-0.1-0.3-0.1-0.3-0.2
			c0.8-0.9,1.7-1.1,3-1.8c0.4-0.2,0.7-0.4,1.1-0.6c0.3-0.1,0.3-0.2-0.1-0.3c-1.1-0.5-2.3-1-3.3-1.6c-0.6-0.3,0-0.3,0.3-0.2
			c1.4,0.6,1.9,0.9,3,1.3c0.6,0.2,1.1,0.5,1.1,0.9C377.9,168.6,377.4,169,376.5,169.4z"/>
	</g>
	<g>
		<path fill="#DF3940" d="M383,178.9c0.8-0.4,1.7-0.9,2.4-1.2c0.5-0.3,0.6-0.3,0.9-0.2c0.2,0.1,0.3,0.1,0.3,0.2
			c-0.8,0.9-1.7,1.1-3,1.8c-0.4,0.2-0.7,0.4-1,0.6c-0.3,0.1-0.3,0.2,0,0.3c1.1,0.5,2.3,1,3.3,1.6c0.6,0.3,0,0.2-0.3,0.2
			c-1.4-0.6-2-0.9-3-1.3c-0.6-0.2-1.1-0.5-1-0.9C381.6,179.7,382.1,179.3,383,178.9z"/>
		<path fill="#DF3940" d="M391.8,175.2c0.1-0.1,0.3-0.2,0.3,0.1c0,0.6-0.3,0.9-1.1,2.3c-1.7,3.1-1.1,1.9-3,5.8
			c-0.6,1.3-0.6,1.4-0.8,0.8C386.9,183.5,390.6,176.9,391.8,175.2z"/>
		<path fill="#DF3940" d="M396,180.6c-0.8,0.4-1.7,0.9-2.4,1.2c-0.5,0.3-0.6,0.3-0.9,0.2c-0.2-0.1-0.3-0.1-0.3-0.2
			c0.8-0.9,1.7-1.1,3-1.8c0.4-0.2,0.7-0.4,1.1-0.6c0.3-0.1,0.3-0.2-0.1-0.3c-1.1-0.5-2.3-1-3.3-1.6c-0.6-0.3,0-0.3,0.3-0.2
			c1.4,0.6,1.9,0.9,3,1.3c0.6,0.2,1.1,0.5,1.1,0.9C397.5,179.8,396.9,180.2,396,180.6z"/>
	</g>
</g>
</svg>
